PathFileType  4	(X/Y/Z) C:\Users\antoi\Documents\MyRepositories\mobilecap\ResultsAnalysis
DataRate	CameraRate	NumFrames	NumMarkers	Units	OrigDataRate	OrigDataStartFrame	OrigNumFrames
100.0	100.0	4	51	mm	100.0	612	1631
Frame#	Time	r_knee			r_shank_antsup			r_ankle			r_calc			r_5meta			r_toe			L_knee			L_shank_antsup			L_ankle			L_calc			L_5meta			L_toe			r_sh2			r_sh3			r_sh4			L_sh2			L_sh3			r_thigh1			r_thigh2			r_thigh3			r_thigh4			r_thigh5			L_thigh1			L_thigh2			L_thigh3			L_thigh4			r.ASIS			r.PSIS			L.ASIS			L.PSIS			C7			R_Shoulder			L_Shoulder			R_Sternum			L_Sternum			R_humerus			R_elbow_med			R_elbow_lat			R_forearm			R_wrist_radius			R_wrist_ulna			L_humerus			L_elbow_med			L_elbow_lat			L_forearm			L_wrist_radius			L_wrist_ulna			R_HJC			L_HJC			R_HJC_reg			L_HJC_reg			
		X1	Y1	Z1	X2	Y2	Z2	X3	Y3	Z3	X4	Y4	Z4	X5	Y5	Z5	X6	Y6	Z6	X7	Y7	Z7	X8	Y8	Z8	X9	Y9	Z9	X10	Y10	Z10	X11	Y11	Z11	X12	Y12	Z12	X13	Y13	Z13	X14	Y14	Z14	X15	Y15	Z15	X16	Y16	Z16	X17	Y17	Z17	X18	Y18	Z18	X19	Y19	Z19	X20	Y20	Z20	X21	Y21	Z21	X22	Y22	Z22	X23	Y23	Z23	X24	Y24	Z24	X25	Y25	Z25	X26	Y26	Z26	X27	Y27	Z27	X28	Y28	Z28	X29	Y29	Z29	X30	Y30	Z30	X31	Y31	Z31	X32	Y32	Z32	X33	Y33	Z33	X34	Y34	Z34	X35	Y35	Z35	X36	Y36	Z36	X37	Y37	Z37	X38	Y38	Z38	X39	Y39	Z39	X40	Y40	Z40	X41	Y41	Z41	X42	Y42	Z42	X43	Y43	Z43	X44	Y44	Z44	X45	Y45	Z45	X46	Y46	Z46	X47	Y47	Z47	X48	Y48	Z48	X49	Y49	Z49	X50	Y50	Z50	X51	Y51	Z51	

612	6.11000000	-214.15574	505.95849	-461.47473	-179.71704	437.70276	-444.94812	-300.54668	103.95892	-465.04713	-361.22017	50.53352	-509.62642	-160.28974	44.43593	-425.30777	-126.12790	72.28936	-483.82067	-206.88277	496.15661	-798.44392	-180.97648	394.72628	-798.85279	-317.82590	98.36050	-751.84916	-384.71010	51.10728	-711.07170	-168.88808	41.72449	-793.39520	-141.31079	72.63281	-731.88152	-202.90488	326.73847	-441.13325	-251.99993	453.07576	-433.42034	-283.48789	340.33104	-431.05744	-265.00540	422.88903	-816.54805	-293.60703	306.06111	-803.95255	-510.30723	584.67634	-447.26594	-402.21277	597.53223	-456.31159	-369.76464	544.90285	-422.63352	-500.00945	471.05586	-438.62503	-378.64567	490.65076	-434.24387	-505.38254	579.04211	-809.91967	-367.01846	588.66776	-810.94714	-497.78903	459.42200	-819.47451	-360.96173	480.03046	-827.10285	-588.53410	616.54399	-503.72293	-775.32220	576.25757	-589.05322	-581.15106	613.13491	-762.44709	-771.51633	570.78979	-690.69459	-697.51310	1106.27318	-637.30943	-630.23018	1064.91089	-457.25965	-611.80317	1073.01792	-798.15219	-548.95141	1031.78729	-599.86903	-546.86641	1028.01490	-652.48835	-698.74648	813.90709	-349.48025	-745.50055	714.60327	-415.06004	-727.98192	728.84713	-327.74863	-586.40877	651.05976	-340.89150	-486.50233	601.18090	-369.81600	-516.59015	574.23586	-348.35633	-680.47090	827.01101	-896.66424	-744.10147	734.88710	-831.95778	-719.49499	746.55934	-909.96798	-569.62491	656.43248	-902.86272	-479.12530	627.65643	-883.40177	-497.70813	593.17713	-890.15904	-632.35958	511.11273	-510.76669	-622.53921	508.39580	-740.90922	-627.24069	522.46545	-536.78241	-620.85753	513.29439	-707.25942	
613	6.12000000	-214.30087	506.17128	-461.18726	-179.75423	437.73214	-444.89981	-300.60016	103.92930	-465.04839	-361.26019	50.50571	-509.66258	-160.31823	44.52832	-425.31541	-126.24694	72.27366	-483.82850	-206.95690	496.18058	-798.44865	-181.05114	394.72252	-798.80759	-317.80928	98.37769	-751.87473	-384.68118	51.14180	-711.08924	-168.89653	41.71178	-793.41175	-141.29330	72.62045	-731.89413	-203.07571	326.87037	-441.06707	-252.11208	453.08976	-433.33199	-283.59931	340.42332	-430.98904	-265.06092	422.88921	-816.70085	-293.60887	306.01778	-803.96809	-510.54346	585.46076	-447.50066	-402.51356	597.53776	-456.13363	-369.98721	544.99571	-422.47035	-500.95075	471.80621	-438.41013	-378.65817	490.98051	-433.67498	-505.70685	579.03332	-810.14042	-367.30044	588.75689	-810.80336	-497.96459	459.47192	-819.50835	-361.18312	479.99295	-826.90136	-589.44389	616.71013	-503.81383	-776.38509	575.17140	-588.94523	-582.54901	613.18314	-762.06964	-772.39334	569.71974	-690.86580	-704.11082	1105.67026	-637.85607	-636.40343	1065.31343	-457.56137	-618.24846	1073.39856	-798.63447	-554.83431	1032.89643	-600.39329	-552.98054	1029.43051	-652.87918	-702.01582	812.98690	-350.67193	-747.92060	713.63980	-416.76687	-730.59930	727.56637	-329.32840	-588.75723	650.12047	-342.42350	-488.83178	600.42415	-371.10753	-518.55072	573.06743	-349.77161	-683.97442	826.06889	-896.30266	-747.22458	734.06665	-831.30941	-722.45734	745.29816	-909.19202	-572.52692	655.05739	-901.49891	-482.11339	626.24218	-881.82404	-500.81172	591.65939	-888.05797	-632.87616	510.95725	-510.69744	-623.10406	508.22611	-740.84185	-627.98148	522.42789	-536.87089	-621.31776	513.32634	-707.02335	
614	6.13000000	-214.48898	506.42395	-460.87856	-179.82089	437.74192	-444.92357	-300.66440	103.92982	-465.01769	-361.18733	50.55532	-509.59363	-160.31127	44.64209	-425.30962	-126.29513	72.30972	-483.81521	-206.99861	496.29914	-798.65830	-181.11318	394.77529	-798.86460	-317.73661	98.41613	-751.88646	-384.61449	51.25373	-711.12093	-168.86273	41.63403	-793.40824	-141.24384	72.48587	-731.84512	-203.27396	326.94887	-441.00153	-252.20386	453.16422	-433.19592	-283.67708	340.48925	-430.93472	-265.12132	422.91136	-816.70160	-293.63705	306.01834	-803.95611	-509.87560	585.97613	-447.70651	-403.02638	597.71120	-455.94877	-370.19302	545.13956	-422.33667	-500.38808	472.30313	-438.78451	-378.84965	491.10896	-433.57097	-505.98613	578.95896	-810.31455	-367.54331	588.82906	-810.63372	-498.10651	459.54395	-819.67247	-361.33669	480.06832	-826.83150	-590.51112	616.66336	-504.25766	-777.33265	574.14440	-588.84897	-583.57156	613.30303	-761.82085	-773.23663	568.72290	-691.02844	-710.55896	1105.02189	-638.39829	-642.47001	1065.84130	-457.79797	-624.63656	1073.73320	-799.08403	-560.57105	1034.00600	-600.95533	-558.67896	1030.73651	-653.58608	-705.13651	812.18277	-351.82497	-749.87602	712.58672	-418.33522	-732.95499	726.40802	-330.79774	-590.94625	649.25835	-343.94098	-490.97599	599.74403	-372.23940	-520.23182	571.65448	-351.36329	-687.25234	825.14092	-896.01774	-750.16567	733.16338	-830.74360	-725.13390	744.04580	-908.50152	-575.28391	653.62265	-899.94071	-484.88171	624.89999	-880.29025	-503.67894	590.12461	-885.95200	-633.38547	510.69140	-510.79073	-623.61508	508.08473	-740.93661	-628.63895	522.40515	-537.25660	-621.83641	513.40124	-706.95007	
615	6.14000000	-214.69401	506.64186	-460.66118	-179.95098	437.77994	-444.98773	-300.65015	104.07205	-464.91500	-361.10986	50.68283	-509.55373	-160.27535	44.77858	-425.36178	-126.28007	72.42584	-483.80670	-207.08439	496.45988	-798.89006	-181.19413	394.90390	-798.96723	-317.60961	98.47686	-751.90111	-384.50034	51.42228	-711.14538	-168.74387	41.46082	-793.33646	-141.13656	72.28728	-731.73814	-203.42144	326.98835	-440.94099	-252.28558	453.20729	-433.08613	-283.76506	340.57820	-430.91399	-265.19160	422.96427	-816.68825	-293.65078	306.06904	-803.96428	-509.71463	586.12499	-447.89602	-403.69263	597.97167	-455.86577	-370.48952	545.25615	-422.31568	-499.98358	472.39379	-439.45713	-379.20866	491.04563	-433.87795	-506.21037	578.54046	-809.93506	-367.76196	588.91660	-810.44851	-498.26008	459.58396	-819.77227	-361.27723	480.52137	-827.20697	-591.69821	616.63106	-504.77602	-778.07999	573.22163	-588.74371	-584.31360	613.45154	-761.65477	-774.03664	567.84434	-691.06668	-716.90666	1104.42452	-638.86634	-648.34097	1066.33808	-458.16991	-630.98346	1073.91210	-799.40321	-566.13376	1035.11163	-601.39630	-564.25333	1031.74794	-654.11763	-708.08592	811.41769	-352.87773	-751.71113	711.58000	-419.86043	-735.09496	725.28742	-332.18115	-592.88844	648.41386	-345.30830	-492.91396	598.98600	-373.41503	-521.96427	570.50365	-352.82451	-690.42435	824.22624	-895.75868	-752.99379	732.15599	-830.22385	-727.70273	742.72367	-907.87045	-577.87279	652.31041	-898.46713	-487.42611	623.65716	-878.75473	-506.23599	588.82183	-884.14537	-633.85538	510.49151	-510.86939	-624.03213	507.97768	-741.01408	-629.06222	522.39883	-537.65915	-622.37357	513.50380	-706.91669	
